<?xml version="1.0" encoding="UTF-8" standalone="no"?>
<svg
   width="180"
   height="180"
   viewBox="0 0 180 180"
   fill="none"
   version="1.1"
   id="svg170"
   sodipodi:docname="botpic.svg"
   inkscape:version="1.2.2 (b0a8486541, 2022-12-01)"
   inkscape:export-filename="botpic.png"
   inkscape:export-xdpi="96"
   inkscape:export-ydpi="96"
   xmlns:inkscape="http://www.inkscape.org/namespaces/inkscape"
   xmlns:sodipodi="http://sodipodi.sourceforge.net/DTD/sodipodi-0.dtd"
   xmlns="http://www.w3.org/2000/svg"
   xmlns:svg="http://www.w3.org/2000/svg">
  <sodipodi:namedview
     id="namedview172"
     pagecolor="#505050"
     bordercolor="#eeeeee"
     borderopacity="1"
     inkscape:showpageshadow="0"
     inkscape:pageopacity="0"
     inkscape:pagecheckerboard="0"
     inkscape:deskcolor="#505050"
     showgrid="false"
     inkscape:zoom="4.8388889"
     inkscape:cx="90.309988"
     inkscape:cy="90.309988"
     inkscape:window-width="1916"
     inkscape:window-height="1029"
     inkscape:window-x="1920"
     inkscape:window-y="0"
     inkscape:window-maximized="1"
     inkscape:current-layer="svg170" />
  <path
     d="M 37.0139,51.8328 H 58.2053 L 90.132,94.1464 154.057,8.65865 170.718,0.229324 167.679,17.3515 99.8972,110.553 v 69.433 H 80.0729 v -69.433 z"
     fill="url(#paint0_linear_8_22)"
     id="path161"
     style="display:inline"
     inkscape:label="logo" />
  <path
     stroke-linecap="round"
     stroke-linejoin="round"
     d="M 113.82352,93.859135 V 74.006197 a 23.823526,23.823526 0 1 0 -47.647019,0 V 93.859135 M 62.205916,153.41793 H 117.79413 A 11.911765,11.911765 0 0 0 129.70588,141.5062 V 105.7709 A 11.911765,11.911765 0 0 0 117.79413,93.859135 H 62.205916 A 11.911765,11.911765 0 0 0 50.29415,105.7709 v 35.7353 a 11.911765,11.911765 0 0 0 11.911766,11.91173 z"
     id="path410"
     style="display:inline;stroke:#000000;stroke-width:10.5883;stroke-dasharray:none;stroke-opacity:0.5481016"
     inkscape:label="lock" />
  <defs
     id="defs168">
    <linearGradient
       id="paint0_linear_8_22"
       x1="85.0729"
       y1="114.553"
       x2="178.489"
       y2="-9.22296"
       gradientUnits="userSpaceOnUse">
      <stop
         stop-color="#009DCA"
         id="stop163" />
      <stop
         offset="1"
         stop-color="white"
         id="stop165" />
    </linearGradient>
  </defs>
</svg>
